<?xml version="1.0" encoding="utf-8" ?><svg xmlns="http://www.w3.org/2000/svg" xmlns:xlink="http://www.w3.org/1999/xlink" width="500" height="500" viewBox="0 0 500 500"><path fill="#777779" d="M76.0074 251.932C81.1193 251.621 87.5878 251.792 92.8528 251.791L121.832 251.787L213.936 251.762L286.464 251.786L308.752 251.793C313.193 251.793 318.265 251.633 322.612 252.032C323.236 253.705 323.012 292.444 322.438 295.385L322.096 295.737C320.98 298.628 322.518 304.815 322.567 308.163C307.569 313.162 293.485 313.997 285.833 329.862C283.044 335.644 280.607 345.089 282.406 351.362C282.38 353.059 283.39 353.696 283.958 355.249C290.335 372.678 305.729 383.689 321.876 391.348C325.324 392.984 330.935 394.906 333.96 397.143C334.499 397.568 334.659 397.506 334.697 398.225C334.833 400.773 334.783 403.544 334.78 406.089L334.745 422.577C325.031 421.964 313.665 422.431 303.765 422.281C299.369 422.214 287.598 422.059 283.999 422.575C283.915 417.149 283.921 411.721 284.017 406.295C284.033 404.609 284.17 399.258 283.9 397.844C276.405 390.57 268.039 384.251 258.993 379.03C250.502 375.391 243.628 374.263 234.464 375.682C232.44 375.995 230.098 376.369 228.196 377.071C224.859 378.789 220.124 380.898 217.076 382.869C211.279 386.618 202.678 392.334 198.117 397.235L197.895 397.469L197.764 397.611C197.389 400.742 197.484 405.191 197.497 408.414C197.522 412.962 197.514 417.509 197.472 422.056C195.378 421.869 193.082 421.806 190.975 421.825C177.533 421.944 163.969 421.569 150.54 421.988L150.516 404.464C150.507 402.446 150.411 399.993 150.513 397.96C150.54 397.423 150.853 397.379 151.251 397.159C155.261 394.704 158.917 393.683 162.991 391.674C176.823 384.852 191.189 374.013 196.259 358.873C197.186 356.105 197.756 352.136 199.287 349.69C199.343 349.443 199.391 349.271 199.398 349.001C200.623 305.449 151.75 288.075 117.572 277.773C106.627 274.474 93.7452 273.012 82.3751 271.846C80.5139 269.644 76.3659 264.224 75.9272 261.497C75.9085 257.818 75.7178 255.718 76.0074 251.932ZM187.919 261.953C184.269 261.762 176.407 262.015 172.778 262.439C175.17 262.862 182.418 263.58 184.934 263.509C196.546 265.714 210.548 266.487 222.372 267.325C238.686 268.545 255.024 269.419 271.375 269.948C282.131 270.243 293.111 270.128 303.884 270.217C303.923 272.386 304.49 275.652 304.786 277.905C305.408 282.651 305.811 286.998 306.142 291.758L306.375 291.782C306.934 290.938 307.484 288.036 307.866 286.718C310.062 279.132 314.056 269.772 315.64 262.279L315.307 261.936C312.105 262.243 304.088 262.051 300.608 262.052L271.348 262.064L217.686 262.049C209.045 262.031 199.6 262.21 191.02 261.968C190.005 262.003 188.939 261.967 187.919 261.953ZM280.8 350.133C281.211 348.136 281.158 343.544 281.306 341.188C274.647 340.703 265.5 341.048 258.625 340.99C243.359 340.915 228.095 340.61 212.839 340.075L212.653 340.355C214.711 341.058 223.605 341.945 226.587 342.394L268.616 348.52C271.84 348.977 278.173 349.209 280.8 350.133Z"/><defs><linearGradient id="gradient_0" gradientUnits="userSpaceOnUse" x1="183.28745" y1="265.85941" x2="179.47566" y2="259.34058"><stop offset="0" stop-color="#857E82" stop-opacity="0"/><stop offset="1" stop-color="#9B9C9A" stop-opacity="0.039215688"/></linearGradient></defs><path fill="url(#gradient_0)" d="M172.778 262.439C176.407 262.015 184.269 261.762 187.919 261.953C188.185 262.876 188.219 262.449 187.916 263.281C186.791 263.674 186.278 263.299 184.934 263.509C182.418 263.58 175.17 262.862 172.778 262.439Z"/><path fill="#D1D0D0" d="M76.0074 251.932C81.1193 251.621 87.5878 251.792 92.8528 251.791L121.832 251.787L213.936 251.762L286.464 251.786L308.752 251.793C313.193 251.793 318.265 251.633 322.612 252.032C323.236 253.705 323.012 292.444 322.438 295.385L322.096 295.737C321.776 296.076 321.59 296.465 321.42 296.895L321.129 296.713C321.2 295.654 320.916 294.643 320.766 293.593C319.446 284.359 318.74 275.042 317.336 265.816C317.137 264.514 317.018 263.179 316.619 261.924C315.898 261.545 316.306 261.631 315.307 261.936C312.105 262.243 304.088 262.051 300.608 262.052L271.348 262.064L217.686 262.049C209.045 262.031 199.6 262.21 191.02 261.968C188.951 261.581 186.725 261.654 184.758 261.318C180.549 260.599 176.745 260.151 172.457 260.36C171.295 260.437 169.831 260.278 168.697 260.462C162.501 261.468 156.538 261.292 150.269 261.3L106.208 261.388C96.2748 261.39 85.8323 261.265 75.9272 261.497C75.9085 257.818 75.7178 255.718 76.0074 251.932Z"/><path fill="#777779" d="M333.96 397.143C334.499 397.568 334.659 397.506 334.697 398.225C334.833 400.773 334.783 403.544 334.78 406.089L334.745 422.577C325.031 421.964 313.665 422.431 303.765 422.281C299.369 422.214 287.598 422.059 283.999 422.575C283.915 417.149 283.921 411.721 284.017 406.295C284.033 404.609 284.17 399.258 283.9 397.844C285.332 397.383 289.585 397.702 291.388 397.681C298.568 397.592 305.75 397.583 312.93 397.654C316.351 397.67 331.588 397.942 333.96 397.143Z"/><path fill="#777779" d="M150.54 421.988L150.516 404.464C150.507 402.446 150.411 399.993 150.513 397.96C150.54 397.423 150.853 397.379 151.251 397.159C154.54 398.49 190.83 397.355 197.764 397.611C197.389 400.742 197.484 405.191 197.497 408.414C197.522 412.962 197.514 417.509 197.472 422.056C195.378 421.869 193.082 421.806 190.975 421.825C177.533 421.944 163.969 421.569 150.54 421.988Z"/><path fill="#D1D0D0" d="M312.112 394.38C296.845 390.271 284.465 371.113 282.375 356.118C282.158 354.565 281.908 353.063 282.109 351.497L282.406 351.362C282.38 353.059 283.39 353.696 283.958 355.249C290.335 372.678 305.729 383.689 321.876 391.348C325.324 392.984 330.935 394.906 333.96 397.143C331.588 397.942 316.351 397.67 312.93 397.654C305.75 397.583 298.568 397.592 291.388 397.681C289.585 397.702 285.332 397.383 283.9 397.844C276.405 390.57 268.039 384.251 258.993 379.03C266.441 378.119 280.864 392.301 287.186 394.275C291.607 395.655 306.993 394.853 312.112 394.38Z"/><path fill="#D1D0D0" d="M199.287 349.69C200.854 355.021 196.489 368.261 193.529 373.143C186.901 384.074 181.889 388.948 170.913 394.572L171.407 394.549C177.611 394.287 184.294 395.374 190.571 394.941C197.043 394.495 202.655 389.022 207.961 385.408C210.829 383.438 213.873 381.738 217.055 380.331C219.717 379.155 225.56 376.148 228.196 377.071C224.859 378.789 220.124 380.898 217.076 382.869C211.279 386.618 202.678 392.334 198.117 397.235L197.895 397.469L197.764 397.611C190.83 397.355 154.54 398.49 151.251 397.159C155.261 394.704 158.917 393.683 162.991 391.674C176.823 384.852 191.189 374.013 196.259 358.873C197.186 356.105 197.756 352.136 199.287 349.69Z"/><path fill="#EB7730" d="M232.018 43.9735C234.722 44.9951 237.761 45.758 240.34 46.8657C249.631 50.8294 257.148 57.3019 263.204 65.3224C276.038 82.3191 277.024 103.277 274.282 123.632C273.139 132.121 275.001 142.903 279.087 150.441C280.607 153.244 282.596 155.794 284.583 158.298C283.1 151.923 283.249 144.605 285.265 138.043C287.616 130.392 294.105 122.206 300.692 117.579C301.067 117.315 301.034 117.378 301.416 117.518C301.246 119.39 300.575 120.121 300.38 122.854C299.418 132.894 304.017 139.949 308.096 148.569C314.943 163.042 314.097 182.717 305.253 196.218C297.633 207.852 285.879 217.521 272.719 222.244C269.252 223.488 265.573 224.24 261.976 225.03C263.028 224.048 264.144 223.123 265.173 222.142C279.668 208.315 281.835 191.525 272.108 174.209C267.224 165.515 261.217 160.122 257.258 150.919C252.743 140.422 250.96 129.914 251.552 118.628C247.474 125.765 244.309 130.857 240.494 138.453C232.328 154.86 229.433 174.64 240.367 190.342C241.494 191.96 242.893 192.928 243.724 194.215L243.523 194.604C242.699 194.727 241.956 194.634 241.141 194.471C228.591 191.964 216.678 185.316 209.281 174.803C208.666 180.401 209.29 187.668 210.561 193.222C213.418 206.214 221.369 217.516 232.63 224.596C221.099 224.348 208.674 216.795 200.31 209.337C174.723 186.524 178.144 149.601 197.984 124.394C200.473 121.233 203.214 118.401 205.96 115.44C204.592 121.316 202.803 124.779 203.395 131.435C204.254 141.104 208.814 147.104 215.814 153.143C214.695 149.266 214.587 142.928 214.675 138.825C214.913 127.684 219.132 115.195 224.555 105.446C231.478 93.0014 240.349 81.5675 240.473 66.4255C240.546 60.474 238.843 54.6357 235.581 49.6573C234.803 48.4762 231.997 45.099 232.018 43.9735Z"/><path fill="#777779" d="M332.459 271.148C331.878 269.085 331.67 260.729 332.836 259.026C335.962 257.795 358.364 258.481 363.283 258.462C377.38 258.329 391.477 258.286 405.574 258.332C413.239 258.295 423.988 258.031 431.829 258.655C432.292 258.692 432.388 259.064 432.519 259.359L432.211 260.038C431.022 261.566 428.422 263.93 426.942 265.425C416.985 275.477 401.158 287.903 388.625 294.477C388.682 293.871 388.671 293.128 388.681 292.509C397.196 287.541 406.286 280.635 413.777 274.281C416.047 272.355 418.735 270.49 420.787 268.385C418.896 269.174 415.118 271.828 413.128 272.992C408.612 275.634 404.071 278.317 399.368 280.625C384.832 287.896 369.468 293.378 353.613 296.951C346.693 298.493 339.561 299.524 332.597 300.784C332.709 299.352 332.671 298.037 332.658 296.609C332.584 288.141 332.906 279.61 332.459 271.148Z"/><path fill="#D1D0D0" d="M332.459 271.148C331.878 269.085 331.67 260.729 332.836 259.026C335.962 257.795 358.364 258.481 363.283 258.462C377.38 258.329 391.477 258.286 405.574 258.332C413.239 258.295 423.988 258.031 431.829 258.655C432.292 258.692 432.388 259.064 432.519 259.359L432.211 260.038C431.099 259.952 428.729 261 427.453 261.323C403.232 267.456 378.362 269.095 353.504 270.385C346.475 270.749 339.411 270.526 332.459 271.148Z"/><path d="M381.209 296.941C381.135 297.448 381.051 298.213 380.946 298.689C379.912 299.471 374.686 301.967 373.286 302.655C362.007 308.201 349.95 313.089 337.932 316.809C336.588 317.225 333.17 318.479 332.105 318.588C334.674 316.68 340.709 315.125 343.974 313.957C347.847 312.538 351.687 311.034 355.493 309.445C365.21 305.333 372.014 301.777 381.209 296.941Z"/><path fill="#606163" d="M388.681 292.509C388.671 293.128 388.682 293.871 388.625 294.477C385.748 296.296 384.054 297.181 380.946 298.689C381.051 298.213 381.135 297.448 381.209 296.941C383.175 295.618 386.526 293.795 388.681 292.509Z"/></svg>